<?xml version="1.0"?>
<svg xmlns="http://www.w3.org/2000/svg" viewBox="0 0 512 512" width="512" height="512" fill="#FFFFFF"><g id="Outline"><path d="M400,216a24.028,24.028,0,0,0,24-24V128a48.072,48.072,0,0,0-40.488-47.408A39.977,39.977,0,1,0,344,95.2V120h16V96h16a32.036,32.036,0,0,1,32,32v64a8.009,8.009,0,0,1-8,8h-8V160H376V328H360V232H344v96H328V232H312v96H296V216h8a24.028,24.028,0,0,0,24-24V128a48.072,48.072,0,0,0-40.488-47.408,40,40,0,1,0-63.024,0A48.072,48.072,0,0,0,184,128v64a24.028,24.028,0,0,0,24,24h8V328H200V232H184v96H168V232H152v96H136V160H120v40h-8a8.009,8.009,0,0,1-8-8V128a32.036,32.036,0,0,1,32-32h16v24h16V95.2a40.055,40.055,0,1,0-39.512-14.6A48.072,48.072,0,0,0,88,128v64a24.028,24.028,0,0,0,24,24h8V328H96a8,8,0,0,0-8,8v51.341a52.861,52.861,0,0,0-29.657,15l-40,40,11.314,11.314,40-40a37.294,37.294,0,0,1,52.686,0,8,8,0,0,0,11.314,0l36-36a8.97,8.97,0,1,1,12.686,12.686l-36,36,11.314,11.314L171.314,424H283.94l-85.714,40H104a8,8,0,0,0-5.657,2.343l-16,16,11.314,11.314L107.313,480H200a7.989,7.989,0,0,0,3.383-.751L321.774,424H416a8,8,0,0,0,8-8V336a8,8,0,0,0-8-8H392V216ZM328,56a24,24,0,1,1,24,24A24.028,24.028,0,0,1,328,56ZM160,32a24,24,0,1,1-24,24A24.028,24.028,0,0,1,160,32Zm96,0a24,24,0,1,1-24,24A24.028,24.028,0,0,1,256,32ZM232,208V160H216v40h-8a8.009,8.009,0,0,1-8-8V128a32.036,32.036,0,0,1,32-32h16v24h16V96h16a32.036,32.036,0,0,1,32,32v64a8.009,8.009,0,0,1-8,8h-8V160H280V328H264V232H248v96H232ZM408,408H187.314l6.343-6.343a24.971,24.971,0,0,0-35.314-35.314l-30.762,30.762A52.663,52.663,0,0,0,104,387.346V344H408Z"/><rect x="216" y="368" width="136" height="16"/><rect x="368" y="368" width="16" height="16"/></g></svg>
